<svg width="83" height="65" viewBox="0 0 83 65" fill="none" xmlns="http://www.w3.org/2000/svg">
<path d="M52.8449 10.4273C54.1551 10.4273 55.7035 10.3192 57.1943 10.2059C58.644 10.0957 60.0875 9.97568 61.069 9.97568C61.8586 9.97568 62.6683 10.2955 63.3098 10.6125C63.9931 10.9502 64.6825 11.3868 65.2819 11.8015C65.886 12.2195 66.4259 12.6345 66.8132 12.9438C67.0077 13.099 67.1653 13.2293 67.2755 13.3213C67.3306 13.3673 67.3738 13.4041 67.404 13.4298C67.4191 13.4426 67.4313 13.4526 67.4397 13.4598C67.4437 13.4632 67.4471 13.4657 67.4495 13.4677C67.4507 13.4688 67.4523 13.4697 67.4531 13.4704L67.454 13.4713L67.454 13.4721L67.5548 13.5683C68.029 14.0703 68.0506 14.8555 67.5834 15.3835C67.116 15.9115 66.3257 15.9948 65.7593 15.597L65.6496 15.5114L65.6487 15.5106C65.6476 15.5096 65.6452 15.5085 65.6424 15.5061C65.6369 15.5014 65.6285 15.4934 65.6166 15.4832C65.5923 15.4626 65.5552 15.431 65.5068 15.3906C65.41 15.3098 65.2677 15.193 65.091 15.0519C64.7359 14.7685 64.2476 14.393 63.7096 14.0208C63.1668 13.6452 62.5996 13.2914 62.0837 13.0364C61.5257 12.7607 61.1932 12.6853 61.069 12.6853C60.223 12.6853 58.925 12.7912 57.4049 12.9067C55.926 13.0192 54.276 13.137 52.8449 13.137C51.3175 13.137 49.906 12.7451 48.7837 12.5522C47.6015 12.3489 46.3024 12.2482 44.4611 12.6527C42.9273 12.9896 41.4699 14.3195 40.1438 16.1765C38.8468 17.9927 37.8697 20.0291 37.1659 21.4203C36.8274 22.0896 36.0038 22.3609 35.3267 22.0263C34.6496 21.6916 34.3751 20.8776 34.7137 20.2084C35.3806 18.8899 36.4595 16.636 37.9039 14.6135C39.3191 12.6318 41.2885 10.5746 43.8667 10.0083C46.1373 9.50959 47.8082 9.6347 49.2531 9.88307C50.7579 10.1417 51.631 10.4273 52.8449 10.4273Z" fill="#D9D9D9"/>
<path d="M83 32.5564C82.9999 33.3045 82.3863 33.9112 81.6293 33.9112C80.8724 33.9112 80.2587 33.3045 80.2586 32.5564C80.2586 30.9241 79.8364 28.5731 79.2226 26.367C78.9191 25.2761 78.5774 24.2521 78.2356 23.4042C77.8834 22.5306 77.5655 21.9316 77.3343 21.6269C76.6897 20.7774 73.9167 17.498 70.9298 14.3323C69.4396 12.7529 67.9197 11.2272 66.6053 10.0606C65.9473 9.47649 65.3603 8.99991 64.8679 8.65545C64.3414 8.28723 64.0399 8.15493 63.9345 8.12886C63.5135 8.02494 62.818 8.04211 61.8472 8.26117C60.9067 8.47343 59.8385 8.84399 58.7462 9.31081C56.5524 10.2484 54.4135 11.5052 53.2206 12.4068C52.6193 12.8612 51.7592 12.7479 51.2993 12.1537C50.8395 11.5593 50.9542 10.7092 51.5554 10.2546C52.9517 9.19926 55.2908 7.83618 57.6584 6.82431C58.8466 6.31649 60.0805 5.88038 61.2368 5.61943C62.3625 5.3654 63.5592 5.24311 64.6002 5.50035C65.2255 5.655 65.8728 6.03891 66.4509 6.44326C67.0631 6.87144 67.7378 7.42409 68.4374 8.04507C69.8385 9.28875 71.4204 10.8793 72.934 12.4835C75.9548 15.6851 78.8013 19.0439 79.5278 20.0013C79.9819 20.5997 80.4065 21.4687 80.7825 22.4013C81.1688 23.3598 81.5411 24.4812 81.8658 25.6482C82.5085 27.9582 83 30.5758 83 32.5564Z" fill="#D9D9D9"/>
<path d="M43.2502 20.8143C43.2502 24.8788 49.7267 29.7279 51.4743 27.1368C52.6275 25.427 52.3252 22.9304 52.3881 20.8143C52.5087 16.7498 52.2689 15.2052 51.4743 14.9434C49.1898 12.6853 43.2502 16.7498 43.2502 20.8143Z" fill="#D9D9D9"/>
<path d="M52.8449 54.6851C54.1551 54.6851 55.7035 54.7931 57.1943 54.9065C58.644 55.0167 60.0875 55.1367 61.069 55.1367C61.8586 55.1367 62.6683 54.8169 63.3098 54.4999C63.9931 54.1621 64.6825 53.7256 65.2819 53.3109C65.886 52.8929 66.4259 52.4779 66.8132 52.1686C67.0077 52.0134 67.1653 51.8831 67.2755 51.7911C67.3306 51.7451 67.3738 51.7083 67.404 51.6826C67.4191 51.6697 67.4313 51.6598 67.4397 51.6526C67.4437 51.6492 67.4471 51.6467 67.4495 51.6447C67.4507 51.6436 67.4523 51.6427 67.4531 51.642L67.454 51.6411L67.454 51.6402L67.5548 51.5441C68.029 51.0421 68.0506 50.2569 67.5834 49.7288C67.116 49.2009 66.3257 49.1176 65.7593 49.5154L65.6496 49.6009L65.6487 49.6018C65.6476 49.6028 65.6452 49.6039 65.6424 49.6062C65.6369 49.611 65.6285 49.619 65.6166 49.6292C65.5923 49.6498 65.5552 49.6814 65.5068 49.7218C65.41 49.8026 65.2677 49.9194 65.091 50.0605C64.7359 50.3439 64.2476 50.7194 63.7096 51.0916C63.1668 51.4672 62.5996 51.821 62.0837 52.076C61.5257 52.3517 61.1932 52.427 61.069 52.427C60.223 52.427 58.925 52.3212 57.4049 52.2056C55.926 52.0932 54.276 51.9754 52.8449 51.9754C51.3175 51.9754 49.906 52.3673 48.7837 52.5602C47.6015 52.7634 46.3024 52.8641 44.4611 52.4597C42.9273 52.1227 41.4699 50.7928 40.1438 48.9359C38.8468 47.1197 37.8697 45.0833 37.1659 43.6921C36.8274 43.0228 36.0038 42.7515 35.3267 43.0861C34.6496 43.4207 34.3751 44.2348 34.7137 44.904C35.3806 46.2224 36.4595 48.4764 37.9039 50.4989C39.3191 52.4805 41.2885 54.5377 43.8667 55.1041C46.1373 55.6028 47.8082 55.4777 49.2531 55.2293C50.7579 54.9706 51.631 54.6851 52.8449 54.6851Z" fill="#D9D9D9"/>
<path d="M83 32.556C82.9999 31.8078 82.3863 31.2011 81.6293 31.2011C80.8724 31.2011 80.2588 31.8078 80.2586 32.556C80.2586 34.1882 79.8364 36.5392 79.2226 38.7453C78.9191 39.8363 78.5774 40.8603 78.2356 41.7081C77.8834 42.5818 77.5655 43.1808 77.3343 43.4855C76.6897 44.335 73.9167 47.6143 70.9298 50.78C69.4396 52.3594 67.9197 53.8851 66.6053 55.0518C65.9473 55.6359 65.3603 56.1124 64.8679 56.4569C64.3414 56.8251 64.0399 56.9574 63.9345 56.9835C63.5135 57.0874 62.818 57.0702 61.8472 56.8512C60.9067 56.6389 59.8385 56.2684 58.7462 55.8015C56.5524 54.864 54.4135 53.6072 53.2206 52.7055C52.6193 52.2511 51.7592 52.3645 51.2993 52.9587C50.8395 53.553 50.9542 54.4032 51.5554 54.8577C52.9517 55.9131 55.2908 57.2762 57.6584 58.288C58.8466 58.7959 60.0805 59.232 61.2368 59.4929C62.3625 59.747 63.5592 59.8692 64.6002 59.612C65.2255 59.4574 65.8728 59.0734 66.4509 58.6691C67.0631 58.2409 67.7378 57.6883 68.4374 57.0673C69.8385 55.8236 71.4204 54.2331 72.934 52.6288C75.9548 49.4273 78.8013 46.0685 79.5278 45.1111C79.9819 44.5126 80.4065 43.6436 80.7825 42.711C81.1688 41.7525 81.5411 40.6311 81.8658 39.4642C82.5085 37.1542 83 34.5366 83 32.556Z" fill="#D9D9D9"/>
<path d="M43.2502 44.1229C43.2502 40.0584 49.7267 35.2093 51.4743 37.8003C52.6275 39.5101 52.3252 42.0067 52.3881 44.1229C52.5087 48.1873 52.2689 49.732 51.4743 49.9938C49.1898 52.2518 43.2502 48.1874 43.2502 44.1229Z" fill="#D9D9D9"/>
<path d="M30.9613 8.02462C32.0513 9.63987 32.9172 11.6923 32.7365 13.7082C32.6255 14.947 31.9459 15.9283 31.1125 16.6894C30.2874 17.4427 29.2191 18.0671 28.1079 18.6107C26.9875 19.1588 25.7404 19.6632 24.5214 20.1462C23.2847 20.6362 22.0799 21.1038 20.9678 21.5986C18.6898 22.6122 16.0038 23.8032 13.6514 24.6057C12.4773 25.0062 11.3308 25.3296 10.3256 25.478C9.39543 25.6153 8.27141 25.6561 7.38355 25.1495C6.20412 24.4764 4.73409 22.9222 3.6669 21.2633C3.11916 20.4118 2.63384 19.4668 2.33678 18.5116C2.04374 17.5692 1.90088 16.5098 2.17566 15.4961C2.34794 14.8605 2.74202 14.3121 3.14404 13.871C3.56021 13.4142 4.07551 12.9751 4.62511 12.5644C5.72495 11.7423 7.08473 10.9427 8.37792 10.2516C9.67884 9.55642 10.9513 8.95118 11.8954 8.52033C12.3683 8.30453 12.7611 8.13105 13.0367 8.01161C13.1744 7.95193 13.2833 7.90573 13.3582 7.87398C13.3956 7.8581 13.4251 7.84599 13.4451 7.8376L13.4474 7.83628C13.4678 7.82669 13.4974 7.81299 13.5357 7.79508C13.6125 7.75911 13.7242 7.70628 13.8669 7.64068C14.1522 7.50952 14.5608 7.32412 15.0578 7.10569C16.0502 6.66955 17.4033 6.09813 18.8341 5.56176C20.2565 5.02857 21.7956 4.51549 23.1499 4.21108C23.8255 4.05924 24.4957 3.94988 25.1052 3.92633C25.6806 3.90413 26.3736 3.94928 26.9743 4.25606C28.3781 4.97297 29.8657 6.40106 30.9613 8.02462ZM30.0054 13.4692C30.108 12.3238 29.6028 10.8952 28.6802 9.52805C27.7632 8.16923 26.5962 7.11277 25.7156 6.66306C25.7452 6.67819 25.6237 6.61778 25.2121 6.63366C24.8348 6.64825 24.3454 6.72143 23.7578 6.85351C22.5849 7.11714 21.1821 7.57943 19.806 8.09527C18.4384 8.60793 17.135 9.15826 16.1713 9.58179C15.6905 9.7931 15.2961 9.97205 15.0228 10.0977C14.8865 10.1603 14.7805 10.2097 14.709 10.2431L14.608 10.2906L14.6033 10.2933L14.5719 10.3082L14.5403 10.3211L14.5356 10.3238C14.5316 10.3254 14.525 10.328 14.5165 10.3316C14.4995 10.3388 14.4734 10.349 14.4393 10.3635C14.3707 10.3926 14.2688 10.4369 14.1381 10.4936C13.8764 10.607 13.4994 10.7725 13.0446 10.9801C12.1332 11.396 10.916 11.9758 9.6817 12.6354C8.43972 13.2991 7.21852 14.0238 6.2792 14.7258C5.80923 15.0771 5.44013 15.4003 5.1812 15.6845C4.9081 15.9842 4.8359 16.1558 4.82455 16.1976C4.73213 16.5386 4.74871 17.0427 4.95791 17.7155C5.16313 18.3753 5.52325 19.0977 5.981 19.8093C6.925 21.2766 8.10658 22.4327 8.75467 22.8026C8.76604 22.8074 8.84407 22.8392 9.03316 22.8524C9.24752 22.8675 9.54075 22.8543 9.92062 22.7982C10.6838 22.6855 11.6483 22.4225 12.757 22.0443C14.9702 21.2893 17.5389 20.1522 19.8426 19.1272C21.0213 18.6027 22.2975 18.1089 23.5019 17.6317C24.7241 17.1474 25.8791 16.6784 26.8918 16.183C27.9138 15.6831 28.7104 15.1932 29.252 14.6986C29.7851 14.2118 29.9747 13.811 30.0054 13.4692Z" fill="#D9D9D9"/>
<path d="M30.9613 56.9754C32.0513 55.3602 32.9172 53.3078 32.7365 51.2918C32.6255 50.053 31.9459 49.0718 31.1125 48.3107C30.2874 47.5573 29.2191 46.9329 28.1079 46.3893C26.9875 45.8412 25.7404 45.3368 24.5214 44.8539C23.2847 44.3638 22.0799 43.8962 20.9678 43.4014C18.6898 42.3878 16.0039 41.1968 13.6514 40.3943C12.4773 39.9938 11.3308 39.6705 10.3256 39.5221C9.39543 39.3847 8.27141 39.3439 7.38355 39.8506C6.20412 40.5236 4.7341 42.0778 3.66691 43.7367C3.11917 44.5882 2.63384 45.5332 2.33679 46.4884C2.04375 47.4309 1.90088 48.4902 2.17566 49.5039C2.34794 50.1395 2.74203 50.6879 3.14404 51.1291C3.56021 51.5858 4.07552 52.0249 4.62511 52.4357C5.72495 53.2577 7.08473 54.0573 8.37792 54.7484C9.67885 55.4436 10.9513 56.0488 11.8954 56.4797C12.3683 56.6955 12.7611 56.869 13.0367 56.9884C13.1744 57.0481 13.2833 57.0943 13.3582 57.126C13.3956 57.1419 13.4251 57.154 13.4451 57.1624L13.4474 57.1637C13.4678 57.1733 13.4974 57.187 13.5357 57.2049C13.6125 57.2409 13.7242 57.2937 13.8669 57.3593C14.1522 57.4905 14.5608 57.6759 15.0578 57.8943C16.0502 58.3305 17.4033 58.9019 18.8341 59.4383C20.2565 59.9714 21.7956 60.4845 23.1499 60.7889C23.8255 60.9408 24.4957 61.0501 25.1052 61.0737C25.6806 61.0959 26.3736 61.0507 26.9743 60.744C28.3781 60.027 29.8657 58.599 30.9613 56.9754ZM30.0054 51.5309C30.1081 52.6762 29.6028 54.1048 28.6802 55.472C27.7632 56.8308 26.5962 57.8872 25.7156 58.337C25.7452 58.3218 25.6237 58.3822 25.2121 58.3664C24.8348 58.3518 24.3454 58.2786 23.7578 58.1465C22.5849 57.8829 21.1821 57.4206 19.806 56.9047C18.4384 56.3921 17.135 55.8418 16.1713 55.4182C15.6905 55.2069 15.2961 55.028 15.0228 54.9024C14.8865 54.8397 14.7805 54.7903 14.709 54.7569L14.608 54.7094L14.6033 54.7067L14.5719 54.6918L14.5403 54.6789L14.5356 54.6763C14.5316 54.6746 14.525 54.672 14.5165 54.6684C14.4995 54.6613 14.4734 54.651 14.4393 54.6366C14.3707 54.6075 14.2688 54.5631 14.1381 54.5065C13.8764 54.393 13.4994 54.2275 13.0446 54.0199C12.1332 53.604 10.916 53.0242 9.6817 52.3646C8.43972 51.7009 7.21852 50.9762 6.27921 50.2742C5.80924 49.9229 5.44013 49.5997 5.1812 49.3155C4.9081 49.0158 4.8359 48.8442 4.82456 48.8024C4.73213 48.4614 4.74872 47.9573 4.95791 47.2845C5.16313 46.6247 5.52325 45.9023 5.98101 45.1907C6.925 43.7234 8.10658 42.5673 8.75468 42.1974C8.76604 42.1927 8.84407 42.1608 9.03317 42.1476C9.24752 42.1326 9.54075 42.1457 9.92063 42.2018C10.6838 42.3145 11.6483 42.5776 12.757 42.9557C14.9702 43.7107 17.5389 44.8478 19.8426 45.8728C21.0213 46.3973 22.2975 46.8911 23.5019 47.3683C24.7241 47.8526 25.8791 48.3216 26.8918 48.817C27.9138 49.3169 28.7104 49.8069 29.252 50.3014C29.7851 50.7882 29.9747 51.189 30.0054 51.5309Z" fill="#D9D9D9"/>
<path d="M9.29534 40.0792C8.83988 39.1788 8.41013 37.5379 8.09064 35.8912C7.77146 34.2462 7.61233 32.8672 7.61233 32.5562L4.87096 32.5562C4.87096 33.1484 5.07787 34.7502 5.39835 36.4019C5.7185 38.0519 6.20205 40.0238 6.8431 41.2911L9.29534 40.0792ZM45.0777 32.5562C45.0777 33.4915 44.6409 34.559 43.6821 35.7968C42.7288 37.0275 41.3547 38.3049 39.7012 39.6346C38.0533 40.9598 36.187 42.2911 34.2755 43.6497C32.3778 44.9986 30.433 46.3756 28.6866 47.7566L30.4 49.8717C32.0801 48.5432 33.9622 47.2102 35.8765 45.8496C37.7771 44.4986 39.709 43.1201 41.4306 41.7357C43.1466 40.3557 44.7139 38.9234 45.8594 37.4445C46.9995 35.9727 47.8191 34.3305 47.8191 32.5562L45.0777 32.5562Z" fill="#D9D9D9"/>
<path d="M9.29534 25.0332C8.83988 25.9335 8.41013 27.5745 8.09064 29.2211C7.77146 30.8662 7.61232 32.2452 7.61232 32.5562L4.87095 32.5562C4.87095 31.964 5.07787 30.3621 5.39834 28.7104C5.7185 27.0604 6.20205 25.0885 6.8431 23.8212L9.29534 25.0332ZM45.0777 32.5562C45.0777 31.6208 44.6409 30.5534 43.6821 29.3155C42.7288 28.0848 41.3547 26.8074 39.7012 25.4777C38.0533 24.1526 36.187 22.8213 34.2755 21.4626C32.3778 20.1137 30.433 18.7368 28.6866 17.3558L30.4 15.2406C32.0801 16.5692 33.9622 17.9022 35.8765 19.2628C37.7771 20.6138 39.709 21.9922 41.4306 23.3767C43.1466 24.7566 44.7139 26.1889 45.8594 27.6679C46.9995 29.1397 47.8191 30.7819 47.8191 32.5562L45.0777 32.5562Z" fill="#D9D9D9"/>
<path d="M22.6899 39.3303C26.4749 39.3303 29.5433 36.2974 29.5433 32.5562C29.5433 28.8149 26.4749 25.782 22.6899 25.782C18.9048 25.782 15.8364 28.8149 15.8364 32.5562C15.8364 36.2974 18.9048 39.3303 22.6899 39.3303ZM22.6899 42.04C17.3908 42.04 13.0951 37.7939 13.0951 32.5562C13.0951 27.3184 17.3908 23.0724 22.6899 23.0724C27.9889 23.0724 32.2847 27.3184 32.2847 32.5562C32.2847 37.7939 27.9889 42.04 22.6899 42.04Z" fill="#D9D9D9"/>
</svg>
